# xmcd
#
# Track frame offsets: 
#        182
#        19817
#        36435
#        49377
#        57905
#        70067
#        87685
#        101845
#        123587
#        150277
#        166477
#        188492
#        203492
#        226132
#        247587
#        263637
#        292190
#
# Disc length: 4204 seconds
#
# Revision: 2
# Processed by: cddbd v1.5.2PL0 Copyright (c) Steve Scherf et al.
# Submitted via: ExactAudioCopy v0.95b4
#
DISCID=e7106a11
DTITLE=Nina Simone - To Love Somebody (1969), Here Comes the Sun (1971
DTITLE=)
DYEAR=2002
DGENRE=Jazz
TTITLE0=Suzanne
TTITLE1=Turn! Turn! Turn!
TTITLE2=Revolution (part 1)
TTITLE3=Revolution (part 2)
TTITLE4=To Love Somebody
TTITLE5=I Shall Be Released
TTITLE6=I Can't See Nobody
TTITLE7=Just Like Tom Thumb Blues
TTITLE8=The Times They Are-A-Changing
TTITLE9=Here Comes The Sun
TTITLE10=Just Like A Woman
TTITLE11=O-O-H Child
TTITLE12=Mr. Bojangles
TTITLE13=New World Coming
TTITLE14=Angle Of The Morning
TTITLE15=How Long Must I Wander
TTITLE16=My Way
EXTD=
EXTT0=
EXTT1=
EXTT2=
EXTT3=
EXTT4=
EXTT5=
EXTT6=
EXTT7=
EXTT8=
EXTT9=
EXTT10=
EXTT11=
EXTT12=
EXTT13=
EXTT14=
EXTT15=
EXTT16=
PLAYORDER=
